<?xml version="1.0" standalone="no"?>
<!DOCTYPE svg PUBLIC "-//W3C//DTD SVG 20010904//EN"
 "http://www.w3.org/TR/2001/REC-SVG-20010904/DTD/svg10.dtd">
<svg version="1.0" xmlns="http://www.w3.org/2000/svg"
 width="2000.000000pt" height="2000.000000pt" viewBox="0 0 2000.000000 2000.000000"
 preserveAspectRatio="xMidYMid meet">

<g transform="translate(0.000000,2000.000000) scale(0.100000,-0.100000)"
fill="#000000" stroke="none">
<path d="M3185 19037 c-4 -13 -5 -43 -3 -68 2 -33 8 -45 21 -47 16 -3 18 3 15
64 -3 69 -22 98 -33 51z"/>
<path d="M1574 19016 c-3 -7 -4 -38 -2 -67 2 -40 7 -54 18 -54 12 0 16 15 18
68 2 56 0 67 -13 67 -9 0 -18 -6 -21 -14z"/>
<path d="M6682 18953 c2 -42 8 -68 16 -71 9 -3 12 15 12 67 0 57 -3 71 -15 71
-13 0 -15 -12 -13 -67z"/>
<path d="M8178 19010 c-1 -5 -1 -37 0 -70 3 -43 8 -60 18 -60 11 0 14 16 14
70 0 54 -3 70 -14 70 -8 0 -16 -4 -18 -10z"/>
<path d="M5080 18915 c0 -58 2 -65 20 -65 18 0 20 7 20 65 0 58 -2 65 -20 65
-18 0 -20 -7 -20 -65z"/>
<path d="M3184 18747 c-2 -7 -3 -58 -2 -113 2 -80 6 -99 18 -99 12 0 16 20 18
113 2 96 0 112 -13 112 -9 0 -18 -6 -21 -13z"/>
<path d="M1582 18708 c-14 -14 -16 -216 -3 -237 21 -33 31 4 31 119 0 117 -6
140 -28 118z"/>
<path d="M6680 18605 c0 -93 3 -115 14 -115 12 0 15 22 18 105 3 118 2 125
-18 125 -11 0 -14 -22 -14 -115z"/>
<path d="M8180 18600 c0 -100 3 -120 15 -120 13 0 15 20 15 120 0 100 -2 120
-15 120 -12 0 -15 -20 -15 -120z"/>
<path d="M5085 18678 c-3 -8 -4 -61 -3 -119 2 -84 6 -104 18 -104 12 0 15 19
15 114 0 83 -3 115 -12 118 -7 3 -15 -2 -18 -9z"/>
<path d="M3184 18357 c-2 -7 -3 -58 -2 -113 3 -85 5 -99 21 -102 15 -3 17 7
17 112 0 98 -2 116 -15 116 -9 0 -18 -6 -21 -13z"/>
<path d="M6680 18217 c0 -115 4 -134 24 -118 7 6 10 48 8 120 -3 88 -6 111
-18 111 -11 0 -14 -21 -14 -113z"/>
<path d="M8180 18190 c0 -100 3 -120 15 -120 13 0 15 20 15 120 0 100 -2 120
-15 120 -12 0 -15 -20 -15 -120z"/>
<path d="M1583 18283 c-19 -7 -18 -226 0 -242 8 -6 17 -8 20 -4 10 9 9 241 0
246 -5 2 -14 2 -20 0z"/>
<path d="M5080 18174 c0 -105 2 -115 18 -112 15 3 17 18 20 116 3 107 2 112
-18 112 -19 0 -20 -6 -20 -116z"/>
<path d="M3184 17967 c-2 -7 -3 -58 -2 -113 3 -85 5 -99 21 -102 15 -3 17 7
17 112 0 98 -2 116 -15 116 -9 0 -18 -6 -21 -13z"/>
<path d="M6680 17815 c0 -93 3 -115 14 -115 19 0 22 24 18 138 -3 72 -7 92
-18 92 -11 0 -14 -22 -14 -115z"/>
<path d="M8183 17897 c-4 -6 -8 -19 -7 -27 1 -8 2 -57 3 -107 1 -76 4 -93 16
-93 12 0 15 19 15 114 0 110 -7 141 -27 113z"/>
<path d="M5087 17894 c-4 -4 -7 -56 -7 -116 0 -102 1 -108 20 -108 20 0 21 5
18 112 -3 103 -11 132 -31 112z"/>
<path d="M1577 17854 c-4 -4 -7 -58 -7 -119 0 -87 3 -115 15 -125 23 -19 26 1
23 130 -3 105 -11 134 -31 114z"/>
<path d="M3184 17577 c-2 -7 -3 -58 -2 -113 3 -85 5 -99 21 -102 15 -3 17 7
17 112 0 98 -2 116 -15 116 -9 0 -18 -6 -21 -13z"/>
<path d="M6680 17425 c0 -96 3 -115 15 -115 12 0 15 19 15 115 0 96 -3 115
-15 115 -12 0 -15 -19 -15 -115z"/>
<path d="M5082 17388 c2 -93 6 -113 18 -113 12 0 16 20 18 113 3 107 2 112
-18 112 -20 0 -21 -5 -18 -112z"/>
<path d="M8179 17490 c-1 -5 -1 -19 -1 -30 0 -167 3 -200 17 -200 13 0 15 20
15 120 0 100 -2 120 -15 120 -8 0 -15 -4 -16 -10z"/>
<path d="M1576 17415 c-3 -9 -6 -63 -6 -120 0 -79 3 -105 15 -115 12 -10 16
-9 20 2 11 27 1 241 -11 245 -6 2 -14 -3 -18 -12z"/>
<path d="M3184 17187 c-2 -7 -3 -58 -2 -113 3 -85 5 -99 21 -102 15 -3 17 7
17 112 0 98 -2 116 -15 116 -9 0 -18 -6 -21 -13z"/>
<path d="M6687 17144 c-4 -4 -7 -58 -7 -121 0 -94 3 -113 15 -113 18 0 17 -3
15 125 -1 95 -8 124 -23 109z"/>
<path d="M5087 17104 c-10 -10 -9 -222 1 -228 4 -2 14 -1 20 3 9 5 12 38 10
116 -3 100 -11 129 -31 109z"/>
<path d="M8178 17080 c-1 -5 -2 -59 0 -120 2 -80 7 -110 15 -107 8 2 13 41 15
120 2 97 0 117 -12 117 -8 0 -16 -4 -18 -10z"/>
<path d="M1582 16991 c-9 -5 -12 -39 -10 -122 3 -99 5 -114 21 -117 15 -3 17
8 17 117 0 119 -4 137 -28 122z"/>
<path d="M3187 16803 c-4 -3 -7 -26 -7 -50 l0 -43 -38 0 c-70 0 -226 -32 -319
-65 -306 -109 -546 -344 -660 -645 l-32 -85 -74 -6 c-201 -17 -374 -102 -499
-246 -161 -187 -204 -466 -107 -698 69 -164 218 -308 382 -370 158 -59 96 -56
1268 -53 1067 4 1074 4 1149 25 254 74 432 222 536 448 162 352 23 784 -319
987 -65 39 -214 98 -249 98 -9 0 -28 21 -43 48 -78 133 -221 289 -344 371
-150 102 -354 174 -528 188 l-83 6 0 48 c0 46 -13 63 -33 42z m204 -148 c200
-35 410 -139 553 -273 58 -56 151 -175 191 -246 l35 -64 68 -16 c37 -9 110
-38 162 -63 81 -40 109 -61 191 -143 74 -74 105 -113 137 -176 116 -226 116
-464 -1 -688 -31 -61 -64 -104 -132 -172 -132 -133 -266 -200 -445 -224 -59
-7 -406 -10 -1125 -8 -1162 4 -1077 -2 -1235 76 -106 51 -233 178 -283 282
-49 103 -67 178 -67 285 0 174 63 329 184 448 128 127 256 184 435 195 l103 7
28 80 c125 368 447 639 839 705 79 13 274 11 362 -5z"/>
<path d="M6680 16634 c0 -105 2 -115 18 -112 9 2 17 9 16 16 -1 6 -2 57 -2
112 -2 82 -5 100 -17 100 -12 0 -15 -20 -15 -116z"/>
<path d="M5087 16714 c-4 -4 -7 -59 -7 -121 0 -104 2 -114 18 -111 15 3 17 17
17 117 0 107 -7 136 -28 115z"/>
<path d="M8179 16678 c-2 -7 -3 -61 -1 -120 3 -86 6 -108 18 -108 11 0 14 22
14 120 0 96 -3 120 -14 120 -8 0 -15 -6 -17 -12z"/>
<path d="M1574 16557 c-3 -8 -4 -39 -2 -68 2 -40 7 -54 18 -54 20 0 22 126 3
132 -7 3 -15 -2 -19 -10z"/>
<path d="M13056 16560 c-460 -42 -1009 -166 -1446 -328 -880 -326 -1617 -844
-2279 -1602 -17 -19 -45 -64 -63 -100 -31 -61 -33 -71 -33 -170 0 -95 3 -110
28 -162 38 -74 109 -146 182 -183 48 -23 76 -30 142 -33 156 -7 240 38 408
218 416 447 710 689 1155 955 551 328 1174 536 1855 620 178 22 643 31 842 16
954 -72 1871 -429 2598 -1011 219 -176 484 -429 659 -632 122 -139 246 -193
388 -168 166 30 288 153 319 321 10 56 9 77 -5 142 -22 99 -54 146 -230 337
-908 987 -2054 1581 -3356 1740 -317 38 -943 60 -1164 40z"/>
<path d="M6682 16245 c2 -66 7 -116 13 -118 13 -3 23 211 11 224 -22 21 -26 3
-24 -106z"/>
<path d="M5080 16205 c0 -106 2 -116 18 -113 15 3 17 16 17 113 0 97 -2 110
-17 113 -16 3 -18 -7 -18 -113z"/>
<path d="M8180 16270 c-1 -5 -1 -55 -1 -110 0 -55 0 -104 1 -110 0 -5 7 -10
15 -10 13 0 15 20 15 120 0 100 -2 120 -15 120 -8 0 -15 -4 -15 -10z"/>
<path d="M6680 15846 c0 -96 3 -116 15 -116 8 0 15 5 15 10 1 6 1 56 1 113 1
85 -2 103 -15 105 -14 3 -16 -12 -16 -112z"/>
<path d="M5085 15918 c-3 -8 -4 -61 -3 -119 2 -84 6 -104 18 -104 12 0 15 19
15 114 0 83 -3 115 -12 118 -7 3 -15 -2 -18 -9z"/>
<path d="M8180 15873 c-4 -119 -1 -226 8 -235 19 -19 23 10 20 127 -2 76 -7
110 -15 113 -7 2 -13 0 -13 -5z"/>
<path d="M6680 15457 c0 -115 4 -134 24 -118 7 6 10 48 8 120 -3 88 -6 111
-18 111 -11 0 -14 -21 -14 -113z"/>
<path d="M5080 15416 c0 -110 1 -116 20 -116 20 0 21 5 18 112 -3 98 -5 113
-20 116 -16 3 -18 -7 -18 -112z"/>
<path d="M8180 15460 c-1 -5 -1 -55 -1 -110 0 -55 0 -104 1 -110 0 -5 7 -10
15 -10 13 0 15 20 15 120 0 100 -2 120 -15 120 -8 0 -15 -4 -15 -10z"/>
<path d="M6680 15055 c0 -93 3 -115 14 -115 12 0 15 22 18 105 3 118 2 125
-18 125 -11 0 -14 -22 -14 -115z"/>
<path d="M5085 15128 c-3 -8 -4 -61 -3 -119 2 -84 6 -104 18 -104 12 0 15 19
15 114 0 83 -3 115 -12 118 -7 3 -15 -2 -18 -9z"/>
<path d="M8186 15062 c-8 -13 -9 -219 -1 -231 17 -28 25 9 25 114 0 101 -8
142 -24 117z"/>
<path d="M13370 15000 c-767 -47 -1355 -230 -1955 -609 -238 -150 -483 -349
-690 -563 -203 -207 -251 -272 -280 -372 -51 -175 36 -366 203 -448 62 -31 74
-33 167 -33 92 0 106 3 167 32 51 24 84 50 140 110 581 625 1201 973 1928
1084 196 30 604 33 815 6 668 -86 1189 -304 1655 -695 52 -44 183 -170 291
-281 241 -246 257 -256 419 -256 96 0 110 2 163 29 64 33 154 121 185 182 33
65 46 153 33 225 -20 116 -64 179 -281 403 -605 624 -1334 1012 -2150 1145
-258 42 -552 57 -810 41z"/>
<path d="M6680 14665 c0 -96 3 -115 15 -115 12 0 15 19 15 115 0 96 -3 115
-15 115 -12 0 -15 -19 -15 -115z"/>
<path d="M5080 14624 c0 -105 2 -115 18 -112 15 3 17 18 20 116 3 107 2 112
-18 112 -19 0 -20 -6 -20 -116z"/>
<path d="M8180 14655 c-1 -3 -1 -45 -1 -95 0 -142 0 -140 16 -140 13 0 15 20
15 120 0 100 -2 120 -15 120 -8 0 -15 -2 -15 -5z"/>
<path d="M1581 14431 c-8 -5 -11 -27 -9 -67 2 -47 7 -59 21 -62 15 -3 17 5 17
62 0 66 -6 81 -29 67z"/>
<path d="M3627 14394 c-10 -11 -8 -107 3 -124 17 -28 31 4 28 65 -3 54 -14 75
-31 59z"/>
<path d="M6684 14380 c-5 -5 -8 -59 -6 -119 3 -86 6 -111 17 -111 11 0 14 25
17 111 3 108 -5 142 -28 119z"/>
<path d="M5085 14338 c-3 -8 -4 -61 -3 -119 2 -84 6 -104 18 -104 12 0 15 19
15 114 0 83 -3 115 -12 118 -7 3 -15 -2 -18 -9z"/>
<path d="M8180 14130 c0 -100 3 -120 15 -120 13 0 15 20 15 120 0 100 -2 120
-15 120 -12 0 -15 -20 -15 -120z"/>
<path d="M1581 14126 c-8 -9 -11 -50 -9 -117 3 -90 5 -104 21 -107 15 -3 17 7
17 112 0 113 -7 139 -29 112z"/>
<path d="M3624 14097 c-3 -8 -3 -56 -2 -108 3 -80 6 -94 21 -97 15 -3 17 7 17
107 0 93 -2 111 -15 111 -9 0 -18 -6 -21 -13z"/>
<path d="M6678 13943 c-3 -43 -6 -48 -28 -51 -214 -22 -401 -150 -488 -334
-63 -131 -78 -251 -47 -373 35 -134 178 -382 362 -625 102 -136 202 -250 218
-250 28 0 253 285 388 490 85 130 171 304 193 390 32 125 4 287 -71 416 -16
27 -58 79 -94 115 -93 93 -232 158 -371 171 -25 3 -26 5 -29 76 -1 12 -7 22
-15 22 -11 0 -16 -14 -18 -47z m91 -419 c113 -33 187 -157 163 -273 -22 -103
-91 -171 -195 -193 -115 -24 -238 50 -271 163 -9 29 -16 62 -16 74 0 95 78
201 167 229 63 19 88 19 152 0z"/>
<path d="M5085 13948 c-3 -8 -4 -61 -3 -119 2 -84 6 -104 18 -104 12 0 15 19
15 114 0 83 -3 115 -12 118 -7 3 -15 -2 -18 -9z"/>
<path d="M8178 13763 c-4 -117 0 -153 18 -153 11 0 14 22 14 120 0 97 -3 120
-14 120 -11 0 -15 -20 -18 -87z"/>
<path d="M1577 13723 c-4 -3 -7 -52 -7 -108 0 -74 4 -106 13 -114 8 -6 17 -8
20 -4 4 3 7 57 7 120 0 87 -3 113 -13 113 -8 0 -17 -3 -20 -7z"/>
<path d="M3624 13717 c-3 -8 -3 -56 -2 -108 2 -76 6 -94 18 -94 12 0 16 20 18
108 2 92 0 107 -13 107 -9 0 -18 -6 -21 -13z"/>
<path d="M5080 13446 c0 -110 1 -116 20 -116 20 0 21 5 18 112 -3 98 -5 113
-20 116 -16 3 -18 -7 -18 -112z"/>
<path d="M8179 13430 c0 -5 0 -55 0 -110 0 -55 0 -104 0 -110 1 -5 8 -10 16
-10 13 0 15 20 15 120 0 100 -2 120 -15 120 -8 0 -15 -4 -16 -10z"/>
<path d="M13340 13428 c-471 -36 -919 -212 -1285 -505 -125 -100 -330 -311
-372 -383 -107 -183 -39 -431 144 -527 77 -40 151 -57 232 -51 110 8 160 39
318 196 164 163 282 249 458 337 158 78 276 117 443 146 108 18 152 20 292 16
241 -8 442 -58 644 -159 176 -88 287 -172 461 -348 159 -160 206 -185 350
-185 92 0 105 3 166 32 116 57 202 174 216 295 3 29 11 56 16 60 19 12 -70
201 -127 269 -179 217 -441 424 -707 559 -383 195 -813 281 -1249 248z"/>
<path d="M3627 13353 c-10 -10 -8 -196 2 -212 21 -33 31 3 31 110 0 84 -3 109
-13 109 -8 0 -17 -3 -20 -7z"/>
<path d="M1577 13323 c-4 -3 -7 -52 -7 -108 0 -74 4 -106 13 -114 8 -6 17 -8
20 -4 4 3 7 57 7 120 0 87 -3 113 -13 113 -8 0 -17 -3 -20 -7z"/>
<path d="M5085 13158 c-3 -8 -4 -61 -3 -119 2 -84 6 -104 18 -104 12 0 15 19
15 114 0 83 -3 115 -12 118 -7 3 -15 -2 -18 -9z"/>
<path d="M8179 13028 c-5 -50 4 -225 11 -232 16 -16 21 17 18 129 -2 76 -7
110 -15 113 -7 2 -14 -2 -14 -10z"/>
<path d="M3627 12973 c-10 -10 -8 -186 2 -202 21 -32 31 3 31 105 0 80 -3 104
-13 104 -8 0 -17 -3 -20 -7z"/>
<path d="M1577 12923 c-10 -10 -8 -206 2 -222 21 -33 31 4 31 115 0 88 -3 114
-13 114 -8 0 -17 -3 -20 -7z"/>
<path d="M5080 12654 c0 -105 2 -115 18 -112 15 3 17 18 20 116 3 107 2 112
-18 112 -19 0 -20 -6 -20 -116z"/>
<path d="M8180 12510 c0 -100 3 -120 15 -120 13 0 15 20 15 120 0 100 -2 120
-15 120 -12 0 -15 -20 -15 -120z"/>
<path d="M3625 12587 c-11 -43 -1 -112 15 -112 12 0 16 15 18 68 2 55 0 67
-12 67 -9 0 -18 -10 -21 -23z"/>
<path d="M1577 12523 c-10 -10 -8 -206 2 -222 21 -33 31 4 31 115 0 88 -3 114
-13 114 -8 0 -17 -3 -20 -7z"/>
<path d="M2637 12453 c-4 -3 -7 -277 -7 -609 0 -540 2 -602 16 -608 24 -9
2017 -7 2032 2 10 7 12 136 10 613 l-3 604 -1021 2 c-561 2 -1024 0 -1027 -4z
m1947 -42 c-5 -5 -215 -129 -466 -276 l-458 -267 -212 125 c-117 68 -323 188
-458 267 -135 79 -249 147 -254 151 -6 5 403 9 924 9 564 0 930 -4 924 -9z
m-1509 -246 c176 -103 321 -188 322 -189 2 -1 -155 -148 -349 -327 -193 -178
-357 -330 -365 -337 -11 -11 -13 80 -13 538 l0 552 43 -25 c23 -14 186 -109
362 -212z m1575 -316 l0 -551 -102 94 c-85 78 -257 231 -596 533 l-45 41 109
64 c60 35 156 91 214 125 58 34 161 95 230 135 69 40 139 81 155 91 17 10 31
19 33 19 1 0 2 -248 2 -551z m-1104 41 c56 -33 108 -60 116 -60 7 0 56 25 108
56 112 66 93 71 242 -66 57 -52 137 -124 178 -160 41 -36 99 -88 129 -116 31
-28 108 -97 171 -153 63 -57 117 -107 118 -112 2 -5 -388 -9 -947 -9 -578 0
-951 4 -951 9 0 5 12 19 28 31 15 12 52 45 82 73 30 29 145 135 255 237 110
101 234 217 276 257 42 40 80 73 84 73 5 0 54 -27 111 -60z"/>
<path d="M5085 12368 c-3 -8 -4 -61 -3 -119 2 -84 6 -104 18 -104 12 0 15 19
15 114 0 83 -3 115 -12 118 -7 3 -15 -2 -18 -9z"/>
<path d="M8185 12219 c-10 -26 -1 -234 10 -232 13 4 19 223 6 236 -7 7 -12 5
-16 -4z"/>
<path d="M1577 12124 c-9 -9 -9 -196 -1 -218 3 -9 13 -16 20 -16 12 0 14 21
12 117 -3 108 -11 137 -31 117z"/>
<path d="M5080 11865 c0 -106 2 -116 18 -113 15 3 17 16 17 113 0 97 -2 110
-17 113 -16 3 -18 -7 -18 -113z"/>
<path d="M13402 11859 c-267 -45 -502 -232 -603 -480 -113 -278 -52 -608 154
-827 183 -194 465 -281 735 -226 97 19 259 97 329 157 123 106 206 232 255
387 31 100 33 319 4 420 -26 91 -85 207 -141 280 -165 214 -467 333 -733 289z"/>
<path d="M8178 11810 c-1 -5 -2 -59 0 -120 3 -88 6 -110 18 -110 11 0 14 22
14 120 0 97 -3 120 -14 120 -8 0 -16 -4 -18 -10z"/>
<path d="M1575 11718 c-3 -8 -4 -61 -3 -119 3 -90 5 -104 21 -107 16 -3 17 6
15 114 -2 83 -7 119 -15 122 -7 2 -15 -3 -18 -10z"/>
<path d="M5085 11578 c-3 -8 -4 -61 -3 -119 2 -84 6 -104 18 -104 12 0 15 19
15 114 0 83 -3 115 -12 118 -7 3 -15 -2 -18 -9z"/>
<path d="M8180 11290 c0 -100 3 -120 15 -120 13 0 15 20 15 120 0 100 -2 120
-15 120 -12 0 -15 -20 -15 -120z"/>
<path d="M1582 11321 c-9 -5 -12 -38 -10 -117 3 -94 5 -109 21 -112 15 -3 17
7 17 112 0 114 -4 132 -28 117z"/>
<path d="M5087 11194 c-4 -4 -7 -59 -7 -121 0 -104 2 -114 18 -111 15 3 17 17
17 117 0 107 -7 136 -28 115z"/>
<path d="M8184 11000 c-5 -5 -8 -59 -6 -119 3 -88 6 -111 18 -111 11 0 14 22
14 114 0 110 -6 136 -26 116z"/>
<path d="M1581 10916 c-8 -9 -11 -50 -9 -117 3 -90 5 -104 21 -107 15 -3 17 7
17 112 0 113 -7 139 -29 112z"/>
<path d="M5080 10687 c0 -94 3 -116 15 -121 23 -8 26 9 23 125 -3 90 -5 104
-20 107 -16 3 -18 -7 -18 -111z"/>
<path d="M8178 10590 c-1 -5 -2 -59 0 -120 3 -85 6 -110 17 -110 11 0 14 25
17 110 3 122 2 130 -17 130 -7 0 -15 -4 -17 -10z"/>
<path d="M1577 10513 c-4 -3 -7 -52 -7 -108 0 -74 4 -106 13 -114 8 -6 17 -8
20 -4 4 3 7 57 7 120 0 87 -3 113 -13 113 -8 0 -17 -3 -20 -7z"/>
<path d="M5085 10398 c-3 -8 -4 -61 -3 -119 2 -84 6 -104 18 -104 12 0 15 19
15 114 0 83 -3 115 -12 118 -7 3 -15 -2 -18 -9z"/>
<path d="M8185 10190 c-9 -14 -9 -215 -1 -229 18 -28 26 9 26 114 0 104 -8
142 -25 115z"/>
<path d="M1016 10170 c-42 -13 -90 -49 -117 -88 -17 -26 -24 -52 -27 -101 -4
-82 23 -141 86 -186 57 -39 148 -46 206 -16 23 12 44 17 50 12 6 -4 117 -87
247 -184 l236 -176 -1 -82 -1 -83 -210 -158 c-115 -87 -226 -169 -246 -183
l-36 -25 -44 20 c-84 38 -174 17 -237 -55 -42 -47 -52 -74 -52 -139 0 -107 76
-192 182 -203 138 -14 234 77 231 220 l-1 68 236 177 c130 98 242 181 248 185
6 3 28 -3 50 -13 96 -49 226 -4 275 96 17 36 20 58 17 108 -5 84 -42 139 -113
173 -62 28 -112 29 -174 2 l-48 -20 -244 183 -244 184 0 70 c0 57 -5 77 -27
114 -52 89 -147 128 -242 100z"/>
<path d="M1574 10106 c-3 -7 -4 -35 -2 -62 2 -37 7 -50 21 -52 15 -3 17 5 17
62 0 53 -3 66 -15 66 -9 0 -18 -6 -21 -14z"/>
<path d="M9894 10006 c-39 -17 -92 -82 -100 -121 -3 -16 2 -102 10 -190 9 -88
34 -349 56 -580 61 -637 135 -1398 195 -2020 30 -308 73 -751 95 -985 37 -392
52 -556 110 -1150 12 -118 37 -375 55 -570 19 -195 35 -358 35 -362 0 -5 -890
-8 -1977 -8 -1350 0 -1990 -3 -2016 -11 -43 -12 -101 -59 -122 -99 -8 -16 -17
-46 -21 -67 l-6 -40 -117 -6 c-298 -17 -625 -108 -834 -234 -92 -55 -204 -155
-232 -206 -14 -27 -32 -40 -84 -62 -292 -119 -564 -371 -705 -653 l-36 -72
-90 0 -89 0 28 68 c147 348 319 675 512 968 l80 122 61 -32 c53 -27 73 -31
152 -34 273 -11 620 172 947 498 286 285 462 580 500 840 15 102 5 174 -32
249 -56 113 -154 158 -319 148 -303 -19 -679 -252 -1021 -633 -201 -223 -355
-532 -375 -748 -7 -76 12 -179 41 -223 8 -12 15 -27 15 -32 0 -5 -31 -56 -69
-113 -196 -295 -398 -675 -526 -993 -32 -78 -55 -106 -55 -67 0 46 129 608
231 1010 72 286 218 806 324 1157 132 436 109 386 180 389 89 4 171 49 271
150 261 263 454 777 454 1207 0 319 -102 503 -277 501 -277 -2 -628 -551 -713
-1112 -50 -331 5 -621 133 -708 l34 -23 -69 -222 c-38 -122 -75 -244 -83 -272
-7 -27 -52 -185 -100 -350 -47 -165 -124 -446 -170 -625 -101 -388 -255 -1055
-255 -1102 0 -15 -9 -18 -49 -18 l-49 0 -6 103 c-3 56 -8 244 -11 417 -3 173
-8 401 -11 505 l-5 190 49 22 c118 55 217 203 298 448 76 232 112 467 121 781
21 758 -196 1392 -493 1440 -164 26 -332 -162 -437 -491 -73 -227 -106 -448
-114 -765 -13 -507 70 -947 231 -1220 75 -128 189 -220 272 -220 l32 0 6 -102
c3 -57 8 -258 11 -448 3 -190 8 -416 11 -502 l6 -158 -109 0 -109 0 -41 208
c-71 349 -168 664 -310 1002 -51 121 -63 158 -54 170 73 99 86 150 85 330 0
129 -3 159 -32 270 -119 469 -465 1009 -857 1338 -224 189 -422 283 -596 284
-106 0 -170 -24 -230 -89 -79 -86 -105 -188 -96 -376 26 -574 575 -1417 1132
-1740 176 -102 352 -140 465 -100 30 11 63 23 72 27 19 9 26 -6 112 -219 134
-331 248 -732 301 -1062 l7 -43 -64 0 -64 0 -30 62 c-124 264 -377 506 -676
648 -91 43 -106 54 -131 94 -51 82 -178 175 -342 251 -431 200 -1046 234
-1346 74 -287 -153 -191 -432 214 -624 462 -219 1132 -245 1407 -56 81 56 113
106 118 186 2 36 6 65 8 65 17 0 206 -104 279 -153 103 -70 248 -211 318 -308
47 -67 137 -218 137 -231 0 -4 -196 -9 -436 -10 l-437 -3 -14 -40 c-21 -59
-62 -270 -70 -361 -14 -140 -8 -450 11 -572 31 -205 95 -432 172 -614 l32 -78
-741 -2 c-652 -3 -742 -5 -742 -18 0 -13 1031 -15 9215 -15 8184 0 9215 2
9215 15 0 13 -53 16 -399 20 -348 4 -397 7 -382 19 41 34 58 90 63 212 l6 117
30 6 c45 9 97 54 118 102 19 41 19 80 17 1096 -3 1042 -3 1053 -24 1088 -23
39 -76 79 -116 87 -16 3 -28 8 -28 12 -1 3 -2 56 -4 116 -3 125 -21 176 -78
218 -64 47 -65 47 -759 47 l-659 0 0 23 c0 12 7 90 15 172 9 83 22 220 30 305
9 85 29 295 46 465 16 171 47 497 69 725 22 228 58 602 80 830 22 228 69 719
105 1090 135 1407 155 1614 185 1923 31 317 31 317 12 361 -42 95 -151 132
-242 84 -73 -40 -85 -74 -120 -358 -17 -135 -71 -553 -120 -930 -49 -377 -105
-809 -124 -960 -20 -151 -51 -394 -70 -540 -19 -146 -69 -530 -111 -855 -42
-324 -107 -828 -145 -1120 -38 -291 -87 -672 -110 -845 -22 -173 -43 -327 -46
-342 l-6 -28 -1296 0 -1297 1 71 37 c154 82 307 219 367 330 37 69 96 296 104
405 l6 88 42 29 c67 46 99 101 103 179 3 70 -4 103 -78 336 -39 124 -42 140
-55 345 -45 676 -147 1060 -355 1328 -83 108 -227 245 -353 337 -53 39 -95 75
-93 80 2 6 -25 47 -59 90 l-64 79 17 30 c9 17 85 100 168 186 162 166 204 230
240 365 21 81 30 294 15 380 -36 206 -175 338 -416 396 -72 17 -112 20 -200
17 l-110 -4 4 43 c8 106 -96 157 -271 133 -221 -31 -381 -124 -404 -237 -15
-76 46 -168 146 -218 l50 -26 -29 -37 c-16 -20 -46 -72 -66 -114 -43 -91 -71
-115 -154 -129 -109 -20 -126 -68 -60 -173 l32 -51 -13 -110 c-17 -162 -27
-320 -22 -356 8 -53 94 -87 264 -104 l67 -6 15 -47 c62 -196 107 -344 104
-346 -140 -103 -169 -129 -165 -150 3 -11 13 -68 23 -124 10 -61 23 -106 30
-109 7 -3 23 2 36 11 35 24 38 20 22 -26 -9 -24 -18 -82 -21 -130 -5 -81 -3
-94 37 -224 l43 -138 -42 -196 c-24 -110 -49 -205 -59 -217 -9 -12 -210 -182
-447 -378 -236 -196 -441 -368 -453 -382 -29 -32 -68 -39 -295 -53 -93 -5
-185 -13 -206 -16 -36 -6 -38 -4 -52 29 -8 19 -72 159 -143 310 l-129 275
-130 61 c-72 33 -134 58 -139 55 -4 -3 -8 -12 -8 -20 0 -8 92 -196 205 -418
202 -396 205 -403 185 -421 -28 -26 -44 -79 -30 -104 13 -25 49 -36 90 -27 28
5 32 1 64 -57 55 -98 57 -91 -31 -116 -120 -35 -230 -80 -263 -107 -39 -33
-38 -28 -56 -436 l-7 -148 -186 0 -187 0 -16 133 c-22 169 -92 714 -163 1257
-30 234 -82 637 -115 895 -34 259 -85 657 -115 885 -47 356 -108 832 -245
1890 -16 124 -45 349 -64 500 -20 151 -41 294 -47 317 -12 45 -58 96 -102 112
-38 15 -95 13 -133 -3z m3336 -1299 c41 -9 97 -19 123 -22 48 -6 48 -7 31 -26
-10 -11 -18 -35 -18 -54 0 -28 11 -45 62 -99 72 -74 74 -84 36 -185 -31 -83
-27 -113 15 -131 26 -10 37 -9 87 14 31 14 60 26 65 26 16 0 49 -44 59 -79 14
-50 -2 -98 -55 -170 -50 -68 -77 -80 -139 -64 -21 6 -45 9 -51 7 -13 -5 -55
-76 -55 -93 0 -22 29 -10 47 19 13 23 24 30 43 28 22 -3 26 -9 30 -53 9 -90
64 -138 173 -153 l54 -7 -237 -174 c-130 -96 -241 -176 -248 -179 -10 -3 -72
172 -72 204 0 6 29 47 65 90 35 44 65 85 65 92 0 14 10 13 -150 12 -135 0
-279 19 -328 44 -38 20 -45 42 -38 114 3 31 13 134 22 228 l18 171 -33 40
c-20 26 -33 54 -34 74 -2 35 -7 33 100 59 61 15 99 53 143 141 21 43 51 95 66
115 30 39 20 39 154 11z m624 -1114 l54 -67 -196 -146 c-109 -80 -235 -173
-282 -208 -47 -34 -134 -98 -194 -142 -60 -44 -111 -80 -115 -80 -3 0 -14 39
-23 88 -15 81 -15 88 1 104 13 14 692 517 698 518 1 0 26 -30 57 -67z m124
-154 c31 -23 60 -45 64 -48 4 -3 -39 -7 -95 -7 -56 -1 -120 -6 -141 -12 -22
-6 -41 -10 -43 -8 -3 3 148 116 155 116 2 0 29 -19 60 -41z m258 -224 c185
-182 261 -304 334 -531 75 -235 128 -570 145 -914 9 -187 20 -246 82 -433 75
-232 75 -296 -4 -368 -52 -48 -174 -107 -293 -140 -64 -18 -266 -16 -385 5
-197 34 -705 168 -705 186 0 3 26 14 57 23 87 27 221 87 227 102 9 24 -22 24
-72 0 -27 -13 -91 -38 -143 -56 -52 -18 -99 -39 -104 -47 -9 -11 -26 -7 -102
23 -137 55 -132 47 -102 146 l25 84 205 102 c112 57 213 113 224 125 11 13 80
174 154 358 l135 335 113 137 c62 75 113 144 113 153 0 33 -30 11 -95 -70 -38
-47 -72 -85 -75 -85 -4 0 15 54 42 121 46 114 54 156 26 147 -7 -3 -20 -24
-30 -49 -9 -24 -83 -212 -163 -418 -81 -205 -169 -427 -197 -493 l-50 -119
-252 -124 c-272 -133 -780 -376 -904 -431 l-52 -23 -68 102 c-38 56 -72 107
-75 114 -5 7 155 147 440 385 246 205 467 388 490 406 41 31 44 38 98 205 63
193 98 326 115 437 20 125 49 230 97 342 50 121 129 257 175 305 62 64 167 92
338 90 l105 -2 131 -130z m-691 -57 c-53 -88 -128 -263 -156 -363 -10 -38 -28
-122 -39 -185 -18 -107 -63 -286 -73 -297 -3 -2 -12 22 -21 54 -9 32 -33 111
-53 176 -33 109 -35 126 -30 205 3 53 15 114 29 156 l24 69 180 133 c98 73
180 131 182 130 1 -2 -18 -37 -43 -78z m-8300 -229 c43 -30 90 -107 111 -184
25 -91 30 -314 10 -456 -47 -335 -183 -669 -368 -899 -75 -95 -136 -146 -218
-184 -52 -24 -130 -35 -130 -18 0 4 45 148 102 320 79 242 99 315 90 324 -8 8
-15 9 -22 2 -9 -9 -55 -146 -166 -491 l-46 -142 -23 15 c-79 52 -135 232 -135
431 1 475 279 1107 559 1271 92 54 168 57 236 11z m-1427 -515 c68 -34 137
-113 194 -222 304 -581 268 -1791 -67 -2239 -40 -54 -123 -123 -147 -123 -4 0
-8 24 -8 53 -1 156 -49 1750 -54 1754 -3 3 -12 3 -21 -1 -15 -5 -16 -23 -11
-149 4 -78 13 -398 21 -712 8 -313 17 -657 21 -762 l6 -193 -32 0 c-49 0 -127
48 -176 108 -175 214 -278 605 -291 1103 -16 588 102 1093 306 1312 88 95 168
117 259 71z m9392 -320 c-12 -35 -25 -64 -30 -64 -7 0 8 74 37 185 7 29 8 28
11 -13 2 -26 -5 -69 -18 -108z m-11293 9 c156 -48 331 -165 521 -348 351 -338
630 -799 737 -1220 31 -121 44 -312 26 -395 -14 -65 -60 -165 -71 -153 -4 4
-43 78 -87 163 -116 226 -240 437 -377 640 -145 216 -416 560 -441 560 -30 0
-14 -34 53 -114 247 -293 504 -678 688 -1031 123 -236 130 -251 114 -270 -17
-20 -103 -45 -159 -45 -67 0 -166 27 -256 70 -505 242 -1050 983 -1175 1600
-17 84 -21 130 -18 225 5 138 26 203 87 268 84 89 186 104 358 50z m4186 -757
c61 -22 107 -65 136 -125 37 -80 36 -209 -4 -331 -51 -159 -152 -338 -290
-515 -85 -108 -288 -304 -411 -397 -346 -258 -687 -350 -847 -226 -17 13 -12
21 64 123 119 158 276 342 411 481 65 66 118 126 118 132 0 7 -8 12 -19 12
-38 0 -380 -378 -541 -597 -55 -76 -78 -99 -87 -92 -42 36 -50 206 -14 334
123 443 641 986 1105 1160 55 20 118 40 140 45 65 13 198 10 239 -4z m7047
-80 c0 -2 -10 -29 -21 -60 -16 -41 -29 -58 -53 -70 -17 -8 -136 -62 -265 -121
l-235 -106 -30 30 c-16 17 -28 33 -25 35 7 7 612 295 622 295 4 1 7 -1 7 -3z
m-886 -187 l48 -71 -29 -30 c-32 -34 -213 -158 -282 -192 -25 -13 -80 -36
-122 -51 -63 -22 -81 -25 -99 -15 -22 12 -95 117 -126 184 -16 32 -22 37 -44
32 -63 -15 -98 -18 -104 -7 -21 33 102 148 182 171 20 5 116 15 212 21 96 5
199 14 230 18 30 5 62 9 71 10 10 1 35 -28 63 -70z m836 -14 c0 -40 8 -36
-148 -63 -56 -10 -99 -15 -95 -11 9 8 224 107 236 108 4 1 7 -15 7 -34z m265
-76 c60 -21 111 -43 113 -49 4 -12 -27 -108 -36 -114 -4 -2 -42 -9 -84 -15
l-77 -11 -137 82 c-75 45 -130 84 -123 87 7 2 36 9 64 15 49 11 50 12 53 53
l3 41 57 -25 c31 -14 106 -43 167 -64z m-980 -69 c8 0 30 8 50 17 34 16 36 16
55 -3 20 -20 20 -20 -35 -81 -65 -72 -156 -136 -188 -131 -19 3 -16 7 26 36
85 60 60 69 -86 31 -74 -20 -120 -38 -145 -57 -45 -35 -82 -55 -89 -49 -14 15
14 49 65 78 83 46 200 126 252 171 l44 39 19 -25 c10 -14 25 -26 32 -26z m692
-45 c105 -62 121 -75 102 -80 -86 -20 -1205 -265 -1213 -265 -1 0 -20 36 -41
81 -33 67 -37 81 -25 89 12 7 16 4 18 -15 2 -18 12 -27 35 -33 39 -11 70 -1
120 39 20 16 57 36 82 44 44 13 46 12 40 -6 -4 -11 -1 -26 5 -34 17 -20 83
-19 123 1 44 23 151 109 169 136 13 19 48 30 224 69 115 26 215 47 222 48 7 1
70 -33 139 -74z m574 -16 c20 -16 42 -29 47 -29 21 0 24 22 5 42 -17 20 -17
21 0 15 87 -32 401 -95 538 -108 145 -14 248 -1 369 45 l85 33 3 -44 c2 -30
-2 -51 -12 -62 -10 -11 -16 -36 -16 -68 0 -66 -33 -193 -70 -268 -38 -79 -142
-185 -251 -258 -150 -99 -281 -145 -434 -149 -49 -2 -351 -2 -671 0 l-580 2
-18 98 c-26 144 -26 142 -48 142 -17 0 -19 -5 -16 -27 34 -199 111 -659 163
-978 74 -448 126 -721 155 -810 11 -33 27 -94 35 -136 16 -79 45 -349 39 -360
-2 -4 -38 -20 -81 -35 -99 -36 -157 -37 -253 -1 l-75 27 -19 68 c-252 904
-563 1953 -633 2137 -49 128 -57 177 -38 240 8 27 25 63 37 78 25 30 8 26 383
107 99 22 294 64 434 95 338 74 431 91 591 111 74 9 141 21 148 27 16 13 42
73 42 96 0 9 5 22 11 28 14 14 72 -12 130 -58z m-1858 -255 c59 -47 107 -90
107 -94 0 -5 -6 -15 -14 -22 -7 -8 -24 -34 -37 -59 -35 -67 -32 -161 9 -264
17 -44 34 -93 37 -110 3 -16 -10 -138 -30 -270 -20 -132 -42 -287 -50 -345
-46 -341 -207 -1441 -216 -1475 -17 -63 -40 -105 -58 -105 -27 0 -140 82 -224
162 l-79 75 6 64 c3 35 8 170 11 299 16 667 70 2054 81 2091 2 8 22 25 43 37
40 23 266 102 291 102 8 0 63 -39 123 -86z m-531 -759 c-2 -71 -5 -149 -9
-172 l-5 -43 -2499 0 -2499 0 0 113 c0 98 3 117 23 152 13 22 40 50 62 62 l40
23 2445 -3 2445 -2 -3 -130z m3101 121 c49 -20 95 -78 102 -128 3 -24 5 -79 3
-123 l-3 -80 -872 -3 c-480 -1 -873 1 -873 5 0 5 -11 78 -25 163 -14 85 -25
159 -25 163 0 4 304 7 676 6 371 0 678 2 681 5 13 13 303 6 336 -8z m4330 0
c43 -17 84 -67 97 -116 6 -22 9 -79 8 -128 l-3 -87 -2125 -3 c-1169 -1 -2135
0 -2147 3 -22 5 -23 9 -23 121 0 120 -9 153 -53 202 l-20 22 2117 0 c1765 0
2122 -2 2149 -14z m-6709 -171 c25 -83 46 -154 46 -158 0 -4 -31 -7 -70 -7
-82 0 -79 -9 -55 154 23 152 26 168 29 165 2 -2 24 -72 50 -154z m-10256 -64
c264 -47 471 -124 642 -237 67 -44 158 -129 148 -139 -2 -3 -25 2 -49 10 -121
43 -404 95 -517 95 -46 0 -53 -3 -50 -17 3 -15 23 -20 123 -30 196 -21 488
-89 533 -125 17 -14 15 -112 -2 -146 -40 -77 -173 -150 -327 -183 -473 -98
-1162 73 -1413 352 -40 45 -76 119 -76 158 1 130 157 235 415 277 118 19 428
11 573 -15z m4480 -33 c-3 -58 -5 -62 -32 -69 -66 -18 -136 -94 -136 -148 0
-17 -6 -21 -34 -21 -57 0 -54 -34 4 -42 l25 -3 0 -225 0 -225 -80 -13 c-110
-19 -439 -21 -535 -3 -180 32 -317 98 -370 177 -19 29 -25 50 -25 95 0 32 3
60 6 64 12 12 153 56 254 80 128 30 234 46 360 54 87 5 100 8 103 25 4 18 -2
19 -114 13 -172 -9 -428 -57 -550 -104 -28 -10 24 49 90 103 198 163 617 295
959 302 l78 2 -3 -62z m5037 -108 c3 -5 3 -113 -1 -240 l-7 -230 -2141 0
c-1364 0 -2153 -4 -2175 -10 -52 -15 -105 -56 -132 -103 l-24 -42 -3 -485 -3
-485 28 -55 c19 -36 43 -65 71 -85 l44 -30 1861 -5 1862 -5 65 -37 c95 -53
337 -146 470 -180 75 -19 152 -32 220 -35 104 -6 106 -5 138 22 38 32 58 75
67 142 3 26 8 58 11 71 l4 22 410 0 c226 0 410 -3 410 -7 0 -16 -114 -126
-210 -201 -188 -149 -200 -160 -200 -192 0 -60 93 -75 280 -45 113 19 161 31
385 95 94 27 213 58 265 70 113 25 171 54 184 93 10 27 3 64 -29 165 l-7 22
388 0 c437 0 440 1 501 75 53 64 54 79 51 595 -3 444 -4 477 -22 510 -21 39
-56 73 -101 98 -27 15 -84 17 -565 20 l-536 3 -37 232 c-21 128 -38 235 -37
240 0 11 1759 9 1800 -3 20 -5 51 -26 70 -45 l35 -36 0 -1069 0 -1069 -35 -36
c-19 -19 -51 -40 -71 -45 -24 -7 -1490 -9 -4190 -8 l-4154 3 -35 20 c-75 45
-70 -42 -70 1133 -1 1119 -3 1083 44 1121 49 41 -24 40 2603 41 1631 0 2514
-3 2518 -10z m821 -70 c87 -295 114 -388 114 -394 0 -3 -84 -6 -186 -6 l-186
0 5 33 c3 17 18 115 32 217 14 102 30 195 35 208 9 21 15 23 87 20 l77 -3 22
-75z m6831 54 c15 -11 38 -36 51 -54 l22 -33 0 -1047 0 -1047 -22 -33 c-13
-18 -36 -43 -51 -54 l-28 -21 -2125 -3 c-1329 -1 -2124 1 -2124 7 0 6 5 13 11
17 6 3 20 25 30 48 18 39 19 86 19 1086 0 1000 -1 1047 -19 1086 -10 23 -24
45 -30 48 -6 4 -11 11 -11 17 0 6 784 8 2124 7 l2125 -3 28 -21z m-13887 -458
c108 -176 467 -261 885 -211 66 8 126 15 133 15 9 0 12 -160 12 -765 0 -620 3
-772 14 -798 18 -44 78 -95 121 -103 l35 -6 0 -112 c0 -115 15 -173 53 -205
10 -7 17 -17 17 -22 0 -5 -269 -9 -615 -9 -338 0 -615 4 -615 8 0 4 18 53 41
107 51 126 103 295 129 425 11 54 20 103 19 107 -1 4 0 11 1 16 1 4 4 19 5 35
2 15 8 63 15 107 11 79 8 371 -5 465 -3 25 -8 67 -10 94 -3 28 -19 107 -36
178 l-31 128 -464 0 c-255 0 -464 2 -464 5 0 13 67 136 108 200 62 94 248 279
347 346 44 29 123 75 175 102 l95 48 7 -61 c4 -33 16 -76 28 -94z m2344 -158
c13 -18 16 -52 16 -163 0 -77 -4 -145 -8 -152 -21 -33 -82 -32 -104 1 -4 6 -8
76 -8 155 0 121 3 147 17 163 23 25 68 23 87 -4z m-132 -125 c23 -20 23 -58 1
-79 -10 -8 -40 -29 -68 -47 -146 -94 -166 -290 -42 -418 50 -51 101 -73 183
-77 61 -3 79 0 128 23 173 82 210 323 68 446 -22 19 -55 43 -74 54 -56 34 -46
115 15 115 34 0 118 -53 166 -105 118 -128 135 -325 39 -477 -131 -209 -425
-242 -608 -68 -123 116 -153 299 -76 455 68 137 209 231 268 178z m-4742 -580
c0 -5 -15 -8 -34 -8 -19 0 -32 3 -29 8 2 4 17 7 34 7 16 0 29 -3 29 -7z m2741
-16 c-10 -9 -11 -8 -5 6 3 10 9 15 12 12 3 -3 0 -11 -7 -18z m6220 -369 c39
-27 82 -48 96 -48 24 0 25 -1 18 -52 -4 -29 -10 -57 -13 -62 -15 -26 -313 18
-462 69 -113 38 -480 197 -480 207 0 6 46 7 118 3 l117 -6 180 54 180 54 87
-86 c49 -47 120 -107 159 -133z m-8777 150 c77 -34 77 -162 0 -196 -45 -21
-91 -15 -126 17 -29 26 -33 36 -33 79 0 36 6 56 20 72 35 39 91 51 139 28z
m606 -13 c31 -28 46 -88 30 -125 -42 -101 -196 -90 -216 15 -8 44 1 68 38 106
29 28 36 31 80 27 27 -3 57 -13 68 -23z m580 0 c31 -28 45 -88 30 -125 -40
-96 -178 -93 -210 5 -26 79 34 150 118 142 24 -3 52 -13 62 -22z m586 -9 c28
-28 34 -42 34 -76 0 -34 -6 -48 -34 -76 -28 -28 -41 -34 -79 -34 -33 0 -51 6
-71 25 -32 30 -46 65 -40 96 15 67 52 98 118 99 30 0 45 -7 72 -34z m580 0
c28 -28 34 -42 34 -76 0 -58 -50 -110 -105 -110 -68 0 -115 45 -115 110 0 66
45 109 114 110 30 0 45 -7 72 -34z m5814 -163 c267 -113 416 -155 603 -169 48
-4 87 -8 87 -10 0 -16 -18 -38 -42 -50 -68 -35 -336 25 -609 137 -152 62 -223
100 -271 147 -56 54 -49 67 20 36 31 -14 127 -55 212 -91z m1805 29 c93 -34
166 -34 265 2 41 15 82 29 90 32 11 4 23 -13 44 -61 16 -36 26 -68 23 -71 -11
-12 -194 -86 -300 -123 -169 -58 -553 -151 -624 -151 -8 0 32 36 90 81 111 84
204 177 272 272 27 38 45 54 55 50 8 -3 47 -17 85 -31z m451 -166 c16 -64 -26
-92 -199 -130 -66 -15 -188 -47 -273 -71 -229 -66 -345 -88 -456 -89 -95 -1
-121 5 -102 24 5 5 76 21 158 35 160 27 364 77 516 126 99 32 278 101 308 118
28 17 41 13 48 -13z m-10621 -178 c5 -4 0 -6 -12 -6 -13 1 -19 7 -16 15 3 8 8
10 12 6 3 -4 10 -11 16 -15z m2733 -5 c-16 -2 -40 -2 -55 0 -16 2 -3 4 27 4
30 0 43 -2 28 -4z m9267 -384 c0 -107 -2 -118 -25 -152 -14 -21 -43 -46 -66
-57 -40 -20 -71 -20 -4015 -20 l-3975 0 -44 23 c-72 36 -90 78 -90 215 l0 112
4108 -2 4107 -3 0 -116z m4333 36 c6 -145 -28 -223 -111 -254 -20 -8 -676 -11
-2144 -11 l-2116 0 20 23 c44 48 53 81 53 200 0 62 3 117 7 120 3 4 970 6
2147 5 l2141 -3 3 -80z"/>
<path d="M13045 8590 c-11 -18 5 -30 41 -30 48 0 71 -15 89 -55 14 -35 28 -44
40 -25 9 15 -21 75 -50 98 -29 23 -108 31 -120 12z"/>
<path d="M13045 8460 c-17 -33 -17 -70 0 -71 15 -1 44 43 47 71 4 38 -27 38
-47 0z"/>
<path d="M12840 8177 c0 -20 40 -52 79 -66 64 -21 151 -11 151 18 0 13 -12 16
-74 16 -61 0 -80 4 -105 23 -34 25 -51 28 -51 9z"/>
<path d="M14288 5622 c-45 -35 -63 -72 -35 -72 18 0 107 79 107 96 0 23 -22
16 -72 -24z"/>
<path d="M14053 5455 c-82 -55 -283 -165 -470 -256 -95 -46 -173 -88 -173 -92
0 -4 7 -10 15 -13 43 -17 715 342 715 382 0 24 -33 16 -87 -21z"/>
<path d="M13775 5223 c-36 -19 -47 -35 -34 -48 12 -12 79 23 79 41 0 21 -13
23 -45 7z"/>
<path d="M4993 6338 c-13 -16 -133 -364 -133 -384 0 -9 7 -14 17 -12 26 5 157
378 139 396 -10 11 -15 11 -23 0z"/>
<path d="M3706 5915 c-3 -9 -6 -47 -6 -85 0 -52 4 -69 15 -74 21 -8 24 5 27
94 3 62 0 75 -13 78 -9 1 -19 -4 -23 -13z"/>
<path d="M1930 5627 c0 -16 141 -157 158 -157 29 0 7 40 -56 103 -63 63 -102
83 -102 54z"/>
<path d="M5787 4926 c-47 -29 -138 -93 -203 -142 -64 -49 -125 -95 -136 -103
-21 -16 -24 -51 -5 -51 7 0 31 15 53 33 69 59 239 182 320 233 87 53 99 65 81
76 -18 12 -18 12 -110 -46z"/>
<path d="M13756 4781 c-7 -12 8 -23 74 -56 73 -36 134 -79 192 -133 30 -28 53
-42 63 -38 8 3 15 10 15 15 0 19 -121 118 -207 169 -84 49 -125 63 -137 43z"/>
<path d="M14050 4736 c0 -7 28 -30 63 -52 76 -46 149 -114 190 -174 42 -62 67
-78 67 -42 0 47 -105 165 -209 233 -74 49 -111 61 -111 35z"/>
<path d="M14120 4505 c0 -23 58 -135 70 -135 23 0 20 32 -8 87 -28 56 -62 82
-62 48z"/>
<path d="M1502 3453 c-15 -3 -22 -10 -20 -21 3 -15 15 -17 83 -14 95 4 115 9
115 28 0 11 -16 14 -77 13 -43 -1 -88 -4 -101 -6z"/>
<path d="M5080 9896 c0 -110 1 -116 20 -116 20 0 21 5 18 112 -3 98 -5 113
-20 116 -16 3 -18 -7 -18 -112z"/>
<path d="M8178 9680 c-3 -123 -2 -130 18 -130 11 0 14 23 14 120 0 98 -3 120
-14 120 -12 0 -15 -22 -18 -110z"/>
<path d="M5087 9614 c-4 -4 -7 -36 -7 -71 0 -56 2 -64 18 -61 14 3 17 14 17
67 0 59 -10 82 -28 65z"/>
<path d="M8178 9269 c-3 -113 1 -137 21 -125 7 5 11 48 11 122 0 92 -3 114
-14 114 -12 0 -15 -23 -18 -111z"/>
<path d="M4062 9130 c-98 -35 -178 -116 -213 -215 -19 -54 -20 -78 -17 -399 3
-329 4 -343 26 -387 51 -107 160 -191 264 -205 l48 -7 0 -191 c0 -244 7 -328
28 -324 9 2 82 100 164 218 81 118 161 234 178 258 29 41 30 42 90 42 48 0 72
-6 122 -32 l62 -33 355 -5 356 -5 135 -197 c75 -109 143 -205 152 -214 31 -31
38 -7 38 130 0 73 3 167 6 209 l7 75 35 7 c87 16 159 72 201 157 l31 61 0 286
0 286 -29 60 c-30 64 -67 102 -135 138 -34 18 -62 22 -164 25 -104 3 -124 7
-129 21 -31 101 -100 183 -192 229 l-56 27 -655 2 c-626 2 -657 2 -708 -17z
m1388 -41 c87 -40 163 -120 176 -188 l6 -30 -408 -3 c-406 -3 -409 -3 -454
-26 -63 -33 -115 -86 -142 -146 -22 -49 -23 -60 -23 -336 l0 -285 28 -59 c15
-32 27 -60 27 -61 0 -2 -24 -3 -54 -3 -29 1 -57 -2 -63 -5 -5 -3 -78 -107
-163 -231 -84 -124 -157 -226 -160 -226 -4 0 -9 101 -12 225 -3 124 -8 229
-12 232 -3 3 -29 10 -57 14 -109 17 -212 98 -249 196 -19 50 -20 77 -20 377 0
355 2 368 61 451 34 48 90 89 148 110 29 11 169 14 681 14 627 1 646 0 690
-20z m-307 -649 c48 -38 44 -130 -7 -165 -11 -8 -39 -15 -62 -15 -94 0 -137
108 -69 176 32 31 100 33 138 4z m313 5 c51 -35 55 -127 7 -165 -38 -29 -106
-27 -138 4 -68 68 -27 176 67 176 24 0 53 -7 64 -15z m335 -14 c40 -41 41 -97
0 -140 -72 -77 -202 -7 -177 95 19 75 121 101 177 45z"/>
<path d="M8180 8860 c0 -100 3 -120 15 -120 13 0 15 20 15 120 0 100 -2 120
-15 120 -12 0 -15 -20 -15 -120z"/>
<path d="M8178 8513 c-4 -57 5 -88 23 -77 5 3 9 34 9 70 0 48 -3 64 -14 64
-10 0 -15 -17 -18 -57z"/>
<path d="M8065 8190 c-223 -30 -417 -129 -576 -298 -125 -133 -207 -285 -245
-457 -24 -110 -24 -304 0 -410 83 -365 359 -647 723 -737 111 -27 319 -30 429
-5 367 83 644 355 736 724 31 122 31 341 0 456 -131 483 -581 790 -1067 727z
m276 -130 c48 -39 126 -154 164 -244 27 -64 28 -69 11 -81 -19 -14 -163 -50
-238 -60 l-48 -6 0 226 0 225 36 -15 c20 -8 53 -29 75 -45z m-191 -171 l0
-220 -47 6 c-81 11 -220 45 -238 59 -16 11 -15 16 9 75 50 122 113 211 191
266 87 63 85 67 85 -186z m-234 154 c-46 -61 -75 -111 -111 -195 -16 -38 -33
-68 -38 -68 -10 0 -155 99 -163 111 -7 11 107 94 181 132 47 23 140 61 163 66
2 1 -12 -20 -32 -46z m659 -12 c44 -21 108 -59 143 -85 53 -39 61 -50 51 -62
-15 -18 -144 -104 -156 -104 -5 0 -20 26 -33 58 -29 70 -63 132 -109 196 l-35
49 29 -7 c17 -4 66 -24 110 -45z m-872 -306 c40 -23 48 -32 43 -49 -10 -35
-46 -266 -52 -338 l-6 -68 -195 0 -195 0 6 58 c20 167 102 357 206 475 l32 37
56 -43 c32 -24 79 -56 105 -72z m1212 20 c84 -119 144 -272 160 -412 l7 -63
-196 0 -196 0 0 23 c-1 75 -35 315 -56 388 -3 11 14 27 58 53 35 20 81 52 103
70 38 32 41 33 59 18 10 -10 38 -44 61 -77z m-1005 -109 c41 -13 102 -27 135
-31 117 -12 105 7 105 -175 l0 -160 -190 0 -190 0 0 38 c0 93 43 352 58 352 4
0 41 -11 82 -24z m664 -43 c18 -81 36 -221 36 -280 l0 -43 -190 0 -190 0 0
159 c0 182 -9 165 100 176 36 4 97 17 135 30 39 13 75 23 82 24 6 1 18 -29 27
-66z m-880 -470 c7 -74 42 -305 52 -340 5 -17 0 -25 -23 -36 -15 -8 -63 -40
-106 -71 l-77 -55 -48 57 c-92 111 -169 297 -187 450 l-7 62 195 0 195 0 6
-67z m454 -95 l-3 -163 -70 -8 c-38 -4 -110 -18 -158 -32 -48 -14 -89 -25 -91
-25 -13 0 -56 272 -56 352 l0 38 190 0 190 0 -2 -162z m462 115 c-1 -83 -43
-343 -56 -343 -2 0 -43 11 -91 25 -48 14 -119 28 -158 32 l-70 8 -3 163 -2
162 190 0 190 0 0 -47z m466 -9 c-20 -175 -96 -349 -209 -483 l-27 -32 -57 44
c-32 24 -80 57 -106 72 -33 19 -46 32 -43 44 21 70 56 321 56 399 0 9 46 12
196 12 l197 0 -7 -56z m-926 -564 c0 -251 3 -243 -82 -189 -62 40 -120 113
-169 214 -58 121 -57 124 25 152 59 20 147 37 209 42 16 1 17 -16 17 -219z
m247 194 c78 -17 133 -40 133 -54 0 -20 -67 -158 -105 -215 -42 -62 -103 -117
-158 -140 l-37 -15 0 225 0 226 53 -7 c28 -3 80 -12 114 -20z m-577 -181 c38
-83 66 -128 122 -200 14 -17 -80 16 -157 55 -33 16 -89 51 -124 77 l-65 48 39
31 c37 30 124 85 135 86 3 0 25 -44 50 -97z m843 70 c23 -15 59 -40 80 -56 31
-24 36 -32 25 -44 -35 -43 -229 -152 -301 -169 -27 -6 -27 -5 25 73 29 43 66
111 82 151 16 40 33 72 38 72 5 0 27 -12 51 -27z"/>
</g>
</svg>
