<?xml version="1.0" encoding="iso-8859-1"?>
<!-- Generator: Adobe Illustrator 19.0.0, SVG Export Plug-In . SVG Version: 6.00 Build 0)  -->
<svg version="1.1" id="Layer_1" xmlns="http://www.w3.org/2000/svg" xmlns:xlink="http://www.w3.org/1999/xlink" x="0px" y="0px"
	 viewBox="0 0 128.5 128.5" style="enable-background:new 0 0 128.5 128.5;" xml:space="preserve">
<g id="_x39__2_">
	<g>
		<circle style="fill:#EFCB6C;" cx="64.25" cy="64.25" r="64.25"/>
	</g>
	<g>
		<rect x="35" y="29" style="fill:#89CBCE;" width="57" height="59"/>
		<rect x="42" y="18" style="fill:#FFFFFF;" width="44" height="70"/>
		<rect x="24" y="55" style="fill:#97D6DD;" width="81" height="44"/>
		<rect x="37" y="64" style="fill:#74BABA;" width="53" height="30"/>
		<rect x="37" y="62" style="fill:#89CBCE;" width="53" height="30"/>
		<path style="fill:#D8D8D8;" d="M58,25H47c-0.552,0-1-0.447-1-1s0.448-1,1-1h11c0.552,0,1,0.447,1,1S58.552,25,58,25z"/>
		<path style="fill:#D8D8D8;" d="M66,25h-4c-0.552,0-1-0.447-1-1s0.448-1,1-1h4c0.552,0,1,0.447,1,1S66.552,25,66,25z"/>
		<path style="fill:#D8D8D8;" d="M66,43h-7c-0.552,0-1-0.447-1-1s0.448-1,1-1h7c0.552,0,1,0.447,1,1S66.552,43,66,43z"/>
		<path style="fill:#D8D8D8;" d="M66,34H47c-0.552,0-1-0.447-1-1s0.448-1,1-1h19c0.552,0,1,0.447,1,1S66.552,34,66,34z"/>
		<path style="fill:#D8D8D8;" d="M81,34H70c-0.552,0-1-0.447-1-1s0.448-1,1-1h11c0.552,0,1,0.447,1,1S81.552,34,81,34z"/>
		<path style="fill:#D8D8D8;" d="M81,25H70c-0.552,0-1-0.447-1-1s0.448-1,1-1h11c0.552,0,1,0.447,1,1S81.552,25,81,25z"/>
		<path style="fill:#D8D8D8;" d="M81,52H62c-0.552,0-1-0.447-1-1s0.448-1,1-1h19c0.552,0,1,0.447,1,1S81.552,52,81,52z"/>
		<path style="fill:#D8D8D8;" d="M58,52H47c-0.552,0-1-0.447-1-1s0.448-1,1-1h11c0.552,0,1,0.447,1,1S58.552,52,58,52z"/>
		<path style="fill:#D8D8D8;" d="M56,43h-9c-0.552,0-1-0.447-1-1s0.448-1,1-1h9c0.552,0,1,0.447,1,1S56.552,43,56,43z"/>
		<path style="fill:#D8D8D8;" d="M81,43H70c-0.552,0-1-0.447-1-1s0.448-1,1-1h11c0.552,0,1,0.447,1,1S81.552,43,81,43z"/>
		<rect x="93" y="62" style="fill:#ABE4EE;" width="9" height="19"/>
		<rect x="93" y="84" style="fill:#B7B7B7;" width="9" height="8"/>
		<path style="fill:#FFFFFF;" d="M100,88c0,0.552-0.448,1-1,1h-3c-0.552,0-1-0.448-1-1l0,0c0-0.552,0.448-1,1-1h3
			C99.552,87,100,87.448,100,88L100,88z"/>
	</g>
</g>
<g>
</g>
<g>
</g>
<g>
</g>
<g>
</g>
<g>
</g>
<g>
</g>
<g>
</g>
<g>
</g>
<g>
</g>
<g>
</g>
<g>
</g>
<g>
</g>
<g>
</g>
<g>
</g>
<g>
</g>
</svg>
